<svg version="1.1" viewBox="0.0 0.0 883.0 546.0" fill="none" stroke="none" stroke-linecap="square" stroke-miterlimit="10" width="883" height="546" xmlns:xlink="http://www.w3.org/1999/xlink" xmlns="http://www.w3.org/2000/svg"><path fill="#efefef" d="M0 0L883.0 0L883.0 546.0L0 546.0L0 0Z" fill-rule="nonzero"/><path fill="#4285f4" d="M441.5 0C489.4215 0 536.4988 12.61431 578.0 36.575066L509.75 154.78754C488.9994 142.80716 465.46075 136.5 441.5 136.5Z" fill-rule="nonzero"/><path fill="#ea4335" d="M578.0 36.575066C619.5012 60.53582 653.9642 94.99876 677.9249 136.5L559.71246 204.75C547.7321 183.99937 530.5006 166.76791 509.75 154.78754Z" fill-rule="nonzero"/><path fill="#fbbc04" d="M677.9249 136.5C701.8857 178.00125 714.5 225.07849 714.5 273.0L578.0 273.0C578.0 249.03925 571.6929 225.50063 559.71246 204.75Z" fill-rule="nonzero"/><path fill="#34a853" d="M714.5 273.0C714.5 320.9215 701.8857 367.99875 677.9249 409.5L559.71246 341.25C571.6929 320.4994 578.0 296.96075 578.0 273.0Z" fill-rule="nonzero"/><path fill="#ff6d01" d="M677.9249 409.5C653.9642 451.00125 619.5012 485.46417 578.0 509.42493L509.75 391.21246C530.5006 379.2321 547.7321 362.0006 559.71246 341.25Z" fill-rule="nonzero"/><path fill="#3c78d8" d="M305.0 36.575066C346.50125 12.61431 393.5785 0 441.5 0L441.5 136.5C417.53925 136.5 394.0006 142.80716 373.25 154.78754Z" fill-rule="nonzero"/><path fill="#ff994d" d="M205.07506 136.5C229.03581 94.99876 263.49875 60.53582 305.0 36.575066L373.25 154.78754C352.4994 166.76791 335.2679 183.99937 323.28754 204.75Z" fill-rule="nonzero"/><path fill="#71c287" d="M168.5 273.0C168.5 225.07849 181.1143 178.00125 205.07506 136.5L323.28754 204.75C311.30716 225.50063 305.0 249.03925 305.0 273.0Z" fill-rule="nonzero"/><path fill="#fcd04f" d="M205.07506 409.5C181.1143 367.99875 168.5 320.9215 168.5 273.0L305.0 273.0C305.0 296.96075 311.30716 320.4994 323.28754 341.25Z" fill-rule="nonzero"/><path fill="#f07b72" d="M305.0 509.42493C263.49875 485.46417 229.03581 451.00125 205.07506 409.5L323.28754 341.25C335.2679 362.0006 352.4994 379.2321 373.25 391.21246Z" fill-rule="nonzero"/><path fill="#cc0000" d="M441.5 546.0C393.5785 546.0 346.50125 533.3857 305.0 509.42493L373.25 391.21246C394.0006 403.19284 417.53925 409.5 441.5 409.5Z" fill-rule="nonzero"/><path fill="#46bdc6" d="M578.0 509.42493C536.4988 533.3857 489.4215 546.0 441.5 546.0L441.5 409.5C465.46075 409.5 488.9994 403.19284 509.75 391.21246Z" fill-rule="nonzero"/><path fill="#20124d" d="M503.51273 67.719124Q502.38773 67.719124 501.82523 66.391Q501.34085 65.266 500.91898 65.031624Q500.54398 64.8285 499.09085 64.8285Q496.52835 64.8285 493.41898 68.73475Q489.20023 73.969124 489.20023 78.67225Q489.20023 80.937874 490.66898 82.562874Q492.15335 84.250374 494.26273 84.250374Q496.07523 84.250374 497.90335 83.3285Q498.91898 82.79725 501.02835 81.250374Q502.04398 80.516 502.54398 80.516Q503.3096 80.516 503.8096 81.094124Q504.32523 81.656624 504.32523 82.35975Q504.32523 83.141 503.65335 83.750374Q499.01273 87.85975 494.26273 87.85975Q490.6221 87.85975 488.1221 85.062874Q485.6846 82.35975 485.6846 78.67225Q485.6846 72.7035 490.6846 66.4535Q494.84085 61.23475 499.09085 61.23475Q499.95023 61.23475 500.6221 61.312874Q501.3096 61.391 501.84085 61.562874Q502.46585 60.67225 503.45023 60.67225Q504.65335 60.67225 504.96585 62.266Q505.2471 63.687874 505.2471 65.766Q505.2471 66.48475 504.8721 67.031624Q504.38773 67.719124 503.51273 67.719124Z" fill-rule="nonzero"/><path fill="#20124d" d="M599.2315 129.98727Q598.13776 135.39352 594.63776 138.6279Q591.1534 141.84665 586.4034 141.84665Q582.0909 141.84665 579.919 139.42477Q577.76276 137.0029 577.76276 132.17477Q577.76276 127.612274 579.919 122.799774Q582.07526 117.97165 585.45026 115.0029Q587.70026 113.018524 590.20026 113.018524Q591.80963 113.018524 594.419 114.0654Q597.62213 115.331024 597.62213 116.862274Q597.62213 117.581024 597.0909 118.143524Q596.57526 118.706024 595.82526 118.706024Q595.45026 118.706024 594.74713 118.268524Q592.05963 116.6279 590.20026 116.6279Q588.88776 116.6279 587.45026 118.0029Q586.7315 118.6904 585.37213 120.5029Q581.30963 125.8779 581.30963 132.17477Q581.30963 135.47165 582.32526 136.79977Q583.43463 138.23727 586.4034 138.23727Q589.55963 138.23727 591.87213 136.2529Q594.32526 134.14352 595.294 130.22165Q590.419 130.47165 586.93463 132.09665Q586.5284 132.29977 586.1534 132.29977Q585.37213 132.29977 584.8565 131.6904Q584.38776 131.15915 584.38776 130.42477Q584.38776 129.47165 585.32526 128.8779Q589.12213 126.5654 598.419 126.5654Q599.169 126.5654 599.669 127.081024Q600.18463 127.581024 600.18463 128.36227Q600.18463 129.5029 599.2315 129.98727Z" fill-rule="nonzero"/><path fill="#20124d" d="M657.3911 231.11392Q654.65674 232.9733 649.563 232.9733Q648.28174 232.9733 646.6255 232.58267Q644.6411 232.0983 643.6411 231.3483L643.46924 231.3483Q642.7036 231.3483 642.188 230.81705Q641.688 230.2858 641.688 229.5358Q641.688 227.69205 641.84424 224.00455Q642.0161 220.31705 642.0161 218.4733Q642.0161 216.42642 641.938 212.33267Q641.85986 208.23892 641.85986 206.19205Q641.85986 205.4733 642.59424 204.67642Q643.34424 203.87955 644.0786 203.87955Q644.5005 203.87955 646.8911 205.06705Q649.59424 206.37955 650.0161 206.52017Q655.0161 208.2233 658.53174 211.75455Q662.65674 215.92642 662.65674 220.92642Q662.65674 223.92642 661.23486 226.69205Q659.8286 229.44205 657.3911 231.11392ZM653.688 212.52017Q651.90674 211.33267 645.40674 208.4733L645.5005 213.5358L645.54736 218.58267L645.2661 228.17642Q645.3911 228.23892 645.6411 228.4108Q647.188 229.44205 649.54736 229.44205Q653.54736 229.44205 655.3755 228.20767Q657.0786 227.05142 658.09424 225.0983Q659.10986 223.12955 659.10986 221.00455Q659.10986 216.05142 653.688 212.52017Z" fill-rule="nonzero"/><path fill="#20124d" d="M650.00934 342.9717Q648.39996 342.9717 647.19684 338.81546Q646.7437 337.23734 646.0562 333.2842Q644.25934 333.5342 641.3687 334.1592L636.69684 335.12796Q635.8062 337.42484 633.6812 341.86234Q633.1187 342.8467 632.14996 342.8467Q631.44684 342.8467 630.88434 342.3467Q630.33746 341.8311 630.33746 341.06546Q630.33746 340.2217 632.9937 334.6592Q632.69684 334.19046 632.69684 333.5967Q632.69684 332.17484 634.4156 331.7686Q636.4312 328.00296 639.4781 323.12796Q643.64996 316.4561 644.6656 316.4561Q646.0562 316.4561 646.57184 318.3936L647.6812 324.29984L650.2906 336.5186L651.2906 339.29984Q651.8062 340.7217 651.8062 341.19046Q651.8062 341.94046 651.25934 342.4561Q650.71246 342.9717 650.00934 342.9717ZM643.8062 322.87796L638.77496 330.9717Q640.9156 330.44046 645.2281 329.6592L643.8062 322.87796Z" fill-rule="nonzero"/><path fill="#20124d" d="M583.87384 408.62387Q583.63947 408.62387 583.3426 408.53012Q580.3582 407.68637 577.6082 407.68637Q576.1707 407.68637 574.45197 407.952Q572.74884 408.21762 570.7801 408.7645Q570.93634 409.90512 570.93634 410.59262Q570.93634 413.03012 570.63947 417.29575L578.3426 416.56137Q581.7332 416.21762 582.51447 416.21762Q583.2801 416.21762 583.81134 416.71762Q584.3426 417.202 584.3426 418.03012Q584.3426 419.62387 582.7176 419.81137L578.5301 420.18637L570.4207 420.92075Q570.3426 422.17075 570.2957 423.29575Q570.26447 424.40512 570.26447 425.37387Q570.26447 429.24887 570.82697 429.93637Q571.24884 430.43637 573.57697 430.43637Q574.6707 430.43637 576.8582 430.37387Q579.0457 430.31137 580.1551 430.31137Q580.49884 430.31137 581.18634 430.202Q581.87384 430.077 582.2176 430.077Q584.07697 430.077 584.07697 431.90512Q584.07697 433.3895 582.57697 433.68637Q580.9207 434.0145 575.4207 434.0145Q569.9832 434.0145 568.43634 432.577Q566.74884 431.0145 566.74884 425.37387Q566.74884 424.24887 566.7957 422.92075Q566.8426 421.577 566.93634 420.03012Q566.74884 419.62387 566.74884 419.17075Q566.74884 418.56137 567.07697 418.09262Q567.4207 413.0145 567.4207 410.59262Q567.4207 409.93637 567.24884 408.68637Q567.07697 407.42075 567.07697 406.78012Q567.07697 404.68637 568.82697 404.68637Q569.57697 404.68637 570.0926 405.18637Q572.20197 404.62387 574.07697 404.34262Q575.95197 404.06137 577.6082 404.06137Q581.87384 404.06137 584.4207 405.09262Q585.6082 405.56137 585.6082 406.78012Q585.6082 407.48325 585.13947 408.0145Q584.63947 408.62387 583.87384 408.62387Z" fill-rule="nonzero"/><path fill="#20124d" d="M494.16495 488.6516Q490.21182 490.1985 484.05557 490.1985Q483.30557 490.1985 482.61807 489.47974Q481.9462 488.7766 481.9462 488.011L481.9462 482.9016Q481.9462 480.386 482.2587 475.72974Q482.61807 470.6985 482.64932 468.4485Q482.6337 466.8391 482.83682 463.636Q482.96182 462.761 483.41495 462.47974Q485.80557 461.74536 488.85245 461.74536Q491.9462 461.74536 494.78995 463.85474Q498.08682 466.2766 498.08682 469.8391Q498.08682 474.35474 494.5712 476.9641Q497.1962 478.0891 498.5087 479.4641Q499.8212 480.8235 499.8212 482.4485Q499.8212 484.5735 497.52432 486.55786Q495.91495 487.9641 494.16495 488.6516ZM488.85245 465.3235Q486.93057 465.3235 486.16495 465.4485L486.1337 468.5266L485.77432 475.3235Q488.27432 475.54224 488.4462 475.5266Q491.10245 475.30786 492.78995 473.87036Q494.60245 472.30786 494.60245 469.8391Q494.60245 468.16724 492.7587 466.74536Q490.91495 465.3235 488.85245 465.3235ZM490.8212 479.4016L488.96182 479.10474Q488.72745 479.10474 488.2587 479.136Q487.80557 479.1516 487.55557 479.1516Q486.60245 479.1516 485.52432 478.99536Q485.43057 481.2141 485.43057 482.9485L485.43057 486.5891Q490.02432 486.43286 492.93057 485.29224Q494.16495 484.8235 495.28995 483.8235Q496.35245 482.9016 496.35245 482.4485Q496.35245 481.62036 494.10245 480.5891Q492.41495 479.79224 490.8212 479.4016Z" fill-rule="nonzero"/><path fill="#20124d" d="M367.1251 480.1532Q366.98447 480.1532 366.82822 480.0907Q365.85947 479.73132 364.26572 479.73132Q363.7501 479.73132 363.0626 479.80945Q362.3751 479.87195 361.51572 480.0282L361.5001 483.4032Q363.0001 483.01257 363.76572 483.01257Q364.96884 483.01257 366.2501 483.1532Q366.98447 483.23132 366.98447 483.95007Q366.98447 484.29382 366.7501 484.5282Q366.53134 484.76257 366.20322 484.76257Q365.79697 484.76257 364.98447 484.70007Q364.17197 484.62195 363.76572 484.62195Q363.23447 484.62195 361.46884 485.07507L361.39072 490.45007Q361.39072 490.79382 361.17197 491.01257Q360.95322 491.24695 360.6251 491.24695Q360.28134 491.24695 360.0626 491.01257Q359.84384 490.79382 359.84384 490.45007Q359.84384 488.9032 359.89072 485.82507Q359.95322 482.74695 359.95322 481.20007Q359.95322 480.85632 359.9376 480.16882Q359.9376 479.48132 359.9376 479.13757Q359.9376 478.79382 360.14072 478.55945Q360.35947 478.32507 360.70322 478.32507Q360.96884 478.32507 361.17197 478.4657Q362.14072 478.29382 362.90634 478.2157Q363.6876 478.12195 364.26572 478.12195Q365.17197 478.12195 366.32822 478.38757Q367.89072 478.74695 367.89072 479.32507Q367.89072 479.63757 367.6876 479.87195Q367.46884 480.1532 367.1251 480.1532ZM372.79697 485.9032L376.70322 485.9032L377.59384 482.66882L373.78134 482.66882L372.79697 485.9032ZM371.34384 485.9032L372.29697 482.66882L370.20322 482.66882Q369.46884 482.66882 369.46884 481.88757Q369.46884 481.29382 370.6251 481.29382L372.6876 481.29382Q372.89072 480.38757 373.29697 478.82507Q373.53134 478.10632 374.21884 478.10632Q374.46884 478.10632 374.64072 478.30945Q374.8126 478.51257 374.8126 478.76257Q374.8126 479.07507 374.60947 479.79382Q374.26572 481.04382 374.20322 481.29382L378.0001 481.29382Q378.26572 480.3407 378.71884 478.76257Q378.92197 478.10632 379.48447 478.10632Q380.14072 478.10632 380.14072 478.7157Q380.14072 479.24695 379.5001 481.29382L381.01572 481.29382Q381.8126 481.29382 381.8126 481.87195Q381.8126 482.70007 380.9376 482.70007Q380.8126 482.70007 380.5626 482.68445Q380.32822 482.66882 380.20322 482.66882L379.0626 482.66882L378.23447 485.9032L379.82822 485.9032Q380.40634 485.9032 380.64072 485.99695Q381.04697 486.1532 381.04697 486.62195Q381.04697 487.3407 380.35947 487.3407L377.84384 487.3407L377.14072 489.87195Q376.9376 490.63757 376.26572 490.63757Q375.6251 490.63757 375.6251 490.01257Q375.6251 489.55945 375.89072 488.66882Q376.2501 487.45007 376.26572 487.3407L372.35947 487.3407Q372.1251 488.24695 371.54697 490.0282Q371.3126 490.5907 370.78134 490.5907Q370.15634 490.5907 370.15634 489.9657Q370.15634 489.6532 370.32822 489.07507Q370.60947 488.20007 370.8751 487.3407L369.39072 487.3407Q368.73447 487.3407 368.73447 486.55945Q368.73447 486.26257 369.0001 486.07507Q369.23447 485.9032 369.54697 485.9032L371.34384 485.9032ZM382.8751 491.12195Q382.57822 491.12195 382.35947 490.91882Q382.14072 490.73132 382.14072 490.45007Q382.14072 490.30945 382.20322 490.16882Q382.8126 488.49695 384.5001 485.3407Q386.1876 482.16882 386.79697 480.48132Q387.82822 477.68445 388.34384 477.7157Q388.64072 477.7157 388.85947 477.91882Q389.07822 478.12195 389.07822 478.4032Q389.07822 478.57507 388.98447 478.82507L388.10947 480.95007Q387.59384 482.4032 386.6251 484.29382L384.92197 487.5282L383.5001 490.66882Q383.29697 491.12195 382.8751 491.12195ZM400.64072 485.68445Q400.15634 488.0907 398.60947 489.5282Q397.0626 490.9657 394.95322 490.9657Q393.03134 490.9657 392.0626 489.88757Q391.10947 488.80945 391.10947 486.6532Q391.10947 484.63757 392.0626 482.49695Q393.01572 480.3407 394.51572 479.0282Q395.51572 478.13757 396.64072 478.13757Q397.34384 478.13757 398.51572 478.60632Q399.9376 479.16882 399.9376 479.85632Q399.9376 480.16882 399.70322 480.41882Q399.46884 480.66882 399.14072 480.66882Q398.96884 480.66882 398.65634 480.48132Q397.45322 479.74695 396.64072 479.74695Q396.04697 479.74695 395.40634 480.35632Q395.09384 480.66882 394.48447 481.4657Q392.6876 483.85632 392.6876 486.6532Q392.6876 488.12195 393.14072 488.7157Q393.6251 489.35632 394.95322 489.35632Q396.34384 489.35632 397.3751 488.4657Q398.46884 487.5282 398.89072 485.79382Q396.73447 485.9032 395.1876 486.62195Q395.0001 486.7157 394.82822 486.7157Q394.48447 486.7157 394.26572 486.45007Q394.04697 486.20007 394.04697 485.88757Q394.04697 485.45007 394.46884 485.20007Q396.15634 484.16882 400.28134 484.16882Q400.6251 484.16882 400.84384 484.4032Q401.07822 484.62195 401.07822 484.9657Q401.07822 485.4657 400.64072 485.68445ZM406.21884 490.74695Q405.03134 490.74695 404.04697 490.2782Q403.79697 490.6532 403.4376 490.6532Q403.14072 490.6532 402.9376 490.43445Q402.73447 490.23132 402.73447 489.91882Q402.73447 489.7157 402.7501 489.32507Q402.76572 488.91882 402.76572 488.7157Q402.76572 487.88757 402.71884 486.24695Q402.6876 484.5907 402.6876 483.76257Q402.6876 483.18445 402.6876 481.60632Q402.70322 480.01257 402.70322 479.43445Q402.70322 478.9657 402.89072 478.5907Q403.15634 478.10632 403.60947 478.10632Q404.1876 478.10632 404.1876 478.79382Q404.1876 478.9032 404.14072 479.12195Q404.10947 479.32507 404.10947 479.43445L404.09384 481.13757L404.07822 483.13757Q404.7501 482.66882 405.35947 482.45007Q405.98447 482.2157 406.51572 482.2157Q408.20322 482.2157 409.2501 483.49695Q410.23447 484.7157 410.23447 486.48132Q410.23447 488.26257 409.07822 489.51257Q407.9376 490.74695 406.21884 490.74695ZM406.51572 483.68445Q405.8751 483.68445 405.20322 484.04382Q404.8751 484.23132 404.07822 484.82507L404.0626 486.16882L404.07822 487.38757L404.07822 488.66882Q404.45322 488.8407 405.14072 489.10632Q405.6251 489.26257 406.21884 489.26257Q407.35947 489.26257 408.07822 488.4657Q408.8126 487.66882 408.8126 486.48132Q408.8126 485.30945 408.21884 484.5282Q407.59384 483.68445 406.51572 483.68445Z" fill-rule="nonzero"/><path fill="#20124d" d="M292.14175 432.15512Q289.40738 434.0145 284.31363 434.0145Q283.03238 434.0145 281.37613 433.62387Q279.39175 433.1395 278.39175 432.3895L278.21988 432.3895Q277.45425 432.3895 276.93863 431.85825Q276.43863 431.327 276.43863 430.577Q276.43863 428.73325 276.59488 425.04575Q276.76675 421.35825 276.76675 419.5145Q276.76675 417.46762 276.68863 413.37387Q276.6105 409.28012 276.6105 407.23325Q276.6105 406.5145 277.34488 405.71762Q278.09488 404.92075 278.82925 404.92075Q279.25113 404.92075 281.64175 406.10825Q284.34488 407.42075 284.76675 407.56137Q289.76675 409.2645 293.28238 412.79575Q297.40738 416.96762 297.40738 421.96762Q297.40738 424.96762 295.9855 427.73325Q294.57925 430.48325 292.14175 432.15512ZM288.43863 413.56137Q286.65738 412.37387 280.15738 409.5145L280.25113 414.577L280.298 419.62387L280.01675 429.21762Q280.14175 429.28012 280.39175 429.452Q281.93863 430.48325 284.298 430.48325Q288.298 430.48325 290.12613 429.24887Q291.82925 428.09262 292.84488 426.1395Q293.8605 424.17075 293.8605 422.04575Q293.8605 417.09262 288.43863 413.56137ZM309.87613 433.0145Q307.18863 433.0145 304.9855 431.96762Q304.423 432.81137 303.6105 432.81137Q302.95425 432.81137 302.4855 432.34262Q302.01675 431.87387 302.01675 431.17075Q302.01675 430.71762 302.06363 429.827Q302.1105 428.92075 302.1105 428.46762Q302.1105 426.60825 302.00113 422.8895Q301.90738 419.17075 301.90738 417.29575Q301.90738 416.0145 301.923 412.43637Q301.93863 408.85825 301.93863 407.56137Q301.93863 406.5145 302.39175 405.67075Q302.96988 404.59262 303.9855 404.59262Q305.298 404.59262 305.298 406.12387Q305.298 406.37387 305.20425 406.84262Q305.12613 407.31137 305.12613 407.56137L305.07925 411.42075L305.03238 415.8895Q306.56363 414.85825 307.93863 414.34262Q309.32925 413.827 310.548 413.827Q314.31363 413.827 316.673 416.71762Q318.89175 419.452 318.89175 423.42075Q318.89175 427.42075 316.298 430.21762Q313.71988 433.0145 309.87613 433.0145ZM310.548 417.1395Q309.09488 417.1395 307.59488 417.952Q306.84488 418.35825 305.06363 419.68637L305.01675 422.73325L305.03238 425.48325L305.06363 428.35825Q305.90738 428.74887 307.423 429.34262Q308.51675 429.67075 309.87613 429.67075Q312.423 429.67075 314.048 427.8895Q315.68863 426.09262 315.68863 423.42075Q315.68863 420.79575 314.37613 419.04575Q312.95425 417.1395 310.548 417.1395Z" fill-rule="nonzero"/><path fill="#20124d" d="M239.41518 341.7694Q237.8058 341.7694 236.60268 337.61316Q236.14955 336.03503 235.46205 332.0819Q233.66518 332.3319 230.77455 332.9569L226.10268 333.92566Q225.21205 336.22253 223.08705 340.66003Q222.52455 341.6444 221.5558 341.6444Q220.85268 341.6444 220.29018 341.1444Q219.7433 340.62878 219.7433 339.86316Q219.7433 339.0194 222.39955 333.4569Q222.10268 332.98816 222.10268 332.3944Q222.10268 330.97253 223.82143 330.56628Q225.83705 326.80066 228.88393 321.92566Q233.0558 315.25378 234.07143 315.25378Q235.46205 315.25378 235.97768 317.19128L237.08705 323.09753L239.69643 335.31628L240.69643 338.09753Q241.21205 339.5194 241.21205 339.98816Q241.21205 340.73816 240.66518 341.25378Q240.1183 341.7694 239.41518 341.7694ZM233.21205 321.67566L228.1808 329.7694Q230.32143 329.23816 234.63393 328.4569L233.21205 321.67566ZM254.10268 341.97253Q251.41518 341.97253 249.21205 340.92566Q248.64955 341.7694 247.83705 341.7694Q247.1808 341.7694 246.71205 341.30066Q246.2433 340.8319 246.2433 340.12878Q246.2433 339.67566 246.29018 338.78503Q246.33705 337.87878 246.33705 337.42566Q246.33705 335.56628 246.22768 331.84753Q246.13393 328.12878 246.13393 326.25378Q246.13393 324.97253 246.14955 321.3944Q246.16518 317.81628 246.16518 316.5194Q246.16518 315.47253 246.6183 314.62878Q247.19643 313.55066 248.21205 313.55066Q249.52455 313.55066 249.52455 315.0819Q249.52455 315.3319 249.4308 315.80066Q249.35268 316.2694 249.35268 316.5194L249.3058 320.37878L249.25893 324.84753Q250.79018 323.81628 252.16518 323.30066Q253.5558 322.78503 254.77455 322.78503Q258.54016 322.78503 260.89954 325.67566Q263.1183 328.41003 263.1183 332.37878Q263.1183 336.37878 260.52454 339.17566Q257.9464 341.97253 254.10268 341.97253ZM254.77455 326.09753Q253.32143 326.09753 251.82143 326.91003Q251.07143 327.31628 249.29018 328.6444L249.2433 331.69128L249.25893 334.44128L249.29018 337.31628Q250.13393 337.7069 251.64955 338.30066Q252.7433 338.62878 254.10268 338.62878Q256.64954 338.62878 258.27454 336.84753Q259.91516 335.05066 259.91516 332.37878Q259.91516 329.75378 258.60266 328.00378Q257.1808 326.09753 254.77455 326.09753Z" fill-rule="nonzero"/><path fill="#20124d" d="M237.24464 209.62447Q237.01027 209.62447 236.7134 209.53072Q233.72902 208.68697 230.97902 208.68697Q229.54152 208.68697 227.82277 208.95259Q226.11964 209.21822 224.1509 209.76509Q224.30714 210.90572 224.30714 211.59322Q224.30714 214.03072 224.01027 218.29634L231.7134 217.56197Q235.10402 217.21822 235.88527 217.21822Q236.6509 217.21822 237.18214 217.71822Q237.7134 218.20259 237.7134 219.03072Q237.7134 220.62447 236.0884 220.81197L231.9009 221.18697L223.79152 221.92134Q223.7134 223.17134 223.66652 224.29634Q223.63527 225.40572 223.63527 226.37447Q223.63527 230.24947 224.19777 230.93697Q224.61964 231.43697 226.94777 231.43697Q228.04152 231.43697 230.22902 231.37447Q232.41652 231.31197 233.5259 231.31197Q233.86964 231.31197 234.55714 231.20259Q235.24464 231.07759 235.5884 231.07759Q237.44777 231.07759 237.44777 232.90572Q237.44777 234.39009 235.94777 234.68697Q234.29152 235.01509 228.79152 235.01509Q223.35402 235.01509 221.80714 233.57759Q220.11964 232.01509 220.11964 226.37447Q220.11964 225.24947 220.16652 223.92134Q220.2134 222.57759 220.30714 221.03072Q220.11964 220.62447 220.11964 220.17134Q220.11964 219.56197 220.44777 219.09322Q220.79152 214.01509 220.79152 211.59322Q220.79152 210.93697 220.61964 209.68697Q220.44777 208.42134 220.44777 207.78072Q220.44777 205.68697 222.19777 205.68697Q222.94777 205.68697 223.4634 206.18697Q225.57277 205.62447 227.44777 205.34322Q229.32277 205.06197 230.97902 205.06197Q235.24464 205.06197 237.79152 206.09322Q238.97902 206.56197 238.97902 207.78072Q238.97902 208.48384 238.51027 209.01509Q238.01027 209.62447 237.24464 209.62447ZM250.30714 234.01509Q247.61964 234.01509 245.41652 232.96822Q244.85402 233.81197 244.04152 233.81197Q243.38527 233.81197 242.91652 233.34322Q242.44777 232.87447 242.44777 232.17134Q242.44777 231.71822 242.49464 230.82759Q242.54152 229.92134 242.54152 229.46822Q242.54152 227.60884 242.43214 223.89009Q242.3384 220.17134 242.3384 218.29634Q242.3384 217.01509 242.35402 213.43697Q242.36964 209.85884 242.36964 208.56197Q242.36964 207.51509 242.82277 206.67134Q243.4009 205.59322 244.41652 205.59322Q245.72902 205.59322 245.72902 207.12447Q245.72902 207.37447 245.63527 207.84322Q245.55714 208.31197 245.55714 208.56197L245.51027 212.42134L245.4634 216.89009Q246.99464 215.85884 248.36964 215.34322Q249.76027 214.82759 250.97902 214.82759Q254.74464 214.82759 257.104 217.71822Q259.32275 220.45259 259.32275 224.42134Q259.32275 228.42134 256.729 231.21822Q254.1509 234.01509 250.30714 234.01509ZM250.97902 218.14009Q249.5259 218.14009 248.0259 218.95259Q247.2759 219.35884 245.49464 220.68697L245.44777 223.73384L245.4634 226.48384L245.49464 229.35884Q246.3384 229.74947 247.85402 230.34322Q248.94777 230.67134 250.30714 230.67134Q252.85402 230.67134 254.47902 228.89009Q256.11963 227.09322 256.11963 224.42134Q256.11963 221.79634 254.80714 220.04634Q253.38527 218.14009 250.97902 218.14009Z" fill-rule="nonzero"/><path fill="#20124d" d="M290.298 142.01675Q286.34488 143.56363 280.18863 143.56363Q279.43863 143.56363 278.75113 142.84488Q278.07925 142.14175 278.07925 141.37613L278.07925 136.26675Q278.07925 133.75113 278.39175 129.09488Q278.75113 124.06363 278.78238 121.81363Q278.76675 120.204254 278.96988 117.00113Q279.09488 116.12613 279.548 115.84488Q281.93863 115.110504 284.9855 115.110504Q288.07925 115.110504 290.923 117.21988Q294.21988 119.641754 294.21988 123.204254Q294.21988 127.71988 290.70425 130.32925Q293.32925 131.45425 294.64175 132.82925Q295.95425 134.18863 295.95425 135.81363Q295.95425 137.93863 293.65738 139.923Q292.048 141.32925 290.298 142.01675ZM284.9855 118.68863Q283.06363 118.68863 282.298 118.81363L282.26675 121.891754L281.90738 128.68863Q284.40738 128.90738 284.57925 128.89175Q287.2355 128.673 288.923 127.235504Q290.7355 125.673004 290.7355 123.204254Q290.7355 121.53238 288.89175 120.110504Q287.048 118.68863 284.9855 118.68863ZM286.95425 132.76675L285.09488 132.46988Q284.8605 132.46988 284.39175 132.50113Q283.93863 132.51675 283.68863 132.51675Q282.7355 132.51675 281.65738 132.3605Q281.56363 134.57925 281.56363 136.31363L281.56363 139.95425Q286.15738 139.798 289.06363 138.65738Q290.298 138.18863 291.423 137.18863Q292.4855 136.26675 292.4855 135.81363Q292.4855 134.9855 290.2355 133.95425Q288.548 133.15738 286.95425 132.76675ZM308.37613 143.45425Q305.68863 143.45425 303.4855 142.40738Q302.923 143.25113 302.1105 143.25113Q301.45425 143.25113 300.9855 142.78238Q300.51675 142.31363 300.51675 141.6105Q300.51675 141.15738 300.56363 140.26675Q300.6105 139.3605 300.6105 138.90738Q300.6105 137.048 300.50113 133.32925Q300.40738 129.6105 300.40738 127.735504Q300.40738 126.454254 300.423 122.87613Q300.43863 119.298004 300.43863 118.00113Q300.43863 116.954254 300.89175 116.110504Q301.46988 115.03238 302.4855 115.03238Q303.798 115.03238 303.798 116.56363Q303.798 116.81363 303.70425 117.28238Q303.62613 117.75113 303.62613 118.00113L303.57925 121.860504L303.53238 126.329254Q305.06363 125.298004 306.43863 124.78238Q307.82925 124.266754 309.048 124.266754Q312.81363 124.266754 315.173 127.15738Q317.39175 129.89175 317.39175 133.8605Q317.39175 137.8605 314.798 140.65738Q312.21988 143.45425 308.37613 143.45425ZM309.048 127.579254Q307.59488 127.579254 306.09488 128.39175Q305.34488 128.798 303.56363 130.12613L303.51675 133.173L303.53238 135.923L303.56363 138.798Q304.40738 139.18863 305.923 139.78238Q307.01675 140.1105 308.37613 140.1105Q310.923 140.1105 312.548 138.32925Q314.18863 136.53238 314.18863 133.8605Q314.18863 131.2355 312.87613 129.4855Q311.45425 127.579254 309.048 127.579254Z" fill-rule="nonzero"/><path fill="#20124d" d="M395.304 60.511177Q394.9915 60.511177 394.64774 60.370552Q392.46024 59.558052 388.8821 59.558052Q387.71024 59.558052 386.14774 59.729927Q384.60086 59.886177 382.66336 60.245552L382.6321 67.8393Q386.02274 66.93305 387.72586 66.93305Q390.4446 66.93305 393.33524 67.26118Q394.9915 67.43305 394.9915 69.04243Q394.9915 69.8393 394.47586 70.35493Q393.97586 70.87055 393.21024 70.87055Q392.304 70.87055 390.47586 70.7143Q388.64774 70.55805 387.72586 70.55805Q386.53836 70.55805 382.5696 71.57368L382.41336 83.68305Q382.41336 84.43305 381.91336 84.94868Q381.429 85.4643 380.66336 85.4643Q379.91336 85.4643 379.41336 84.94868Q378.91336 84.43305 378.91336 83.68305Q378.91336 80.2143 379.03836 73.2768Q379.179 66.3393 379.179 62.886177Q379.179 62.104927 379.14774 60.558052Q379.1165 58.995552 379.1165 58.214302Q379.1165 57.448677 379.60086 56.917427Q380.08524 56.386177 380.8665 56.386177Q381.4446 56.386177 381.89774 56.714302Q384.0696 56.323677 385.804 56.136177Q387.554 55.948677 388.8821 55.948677Q390.89774 55.948677 393.4915 56.526802Q397.03836 57.339302 397.03836 58.636177Q397.03836 59.339302 396.5696 59.886177Q396.0696 60.511177 395.304 60.511177Z" fill-rule="nonzero"/></svg>